<?xml version="1.0" encoding="utf-8"?>
<svg id="master-artboard" viewBox="0 0 1400 980" version="1.1" xmlns="http://www.w3.org/2000/svg" x="0px" y="0px" style="enable-background:new 0 0 1400 980;" width="1400px" height="980px" xmlns:xlink="http://www.w3.org/1999/xlink">

<path d="M 0 0 H 1400 V 980 H 0 V 0 Z" id="BG" class="st0" style="fill: rgb(246, 249, 248);"/>


<g transform="matrix(1.4959158897399902, 0, 0, 1.4959158897399902, -313.3692928883721, -691.3068566018759)">
	<path d="M 778 909.200012 A 78 4.8 0 0 1 700 914.000012 A 78 4.8 0 0 1 622 909.200012 A 78 4.8 0 0 1 700 904.400012 A 78 4.8 0 0 1 778 909.200012 Z" class="st1" style="opacity: 0.05;"/>
	<g>
		<g>
			<path d="M 835.300003 749.299988 A 135.300003 135.300003 0 0 1 700 884.599991 A 135.300003 135.300003 0 0 1 564.699997 749.299988 A 135.300003 135.300003 0 0 1 700 613.999985 A 135.300003 135.300003 0 0 1 835.300003 749.299988 Z" class="st11" style="fill: rgb(0, 153, 221);"/>
			<g>
				<defs>
					<path d="M 835.300003 749.299988 A 135.300003 135.300003 0 0 1 700 884.599991 A 135.300003 135.300003 0 0 1 564.699997 749.299988 A 135.300003 135.300003 0 0 1 700 613.999985 A 135.300003 135.300003 0 0 1 835.300003 749.299988 Z" id="SVGID_5_"/>
				</defs>
				<clipPath id="SVGID_6_">
					<use style="overflow:visible;" xlink:href="#SVGID_5_"/>
				</clipPath>
				<path d="M 589.7999877929688 750.0999755859375 L 735.5 895.9000244140625 L 874.4000244140625 892.7999877929688 L 871.0999755859375 783.2000122070312 L 779.7999877929688 697.5 L 772.2000122070312 735.2000122070312 L 753.5999755859375 716.5999755859375 L 747.5999755859375 725.4000244140625 L 652.7999877929688 724.9000244140625 L 635.4000244140625 708.5 Z" class="st12" style="opacity: 0.2; clip-path: url('#SVGID_6_');"/>
				<g class="st13" style="clip-path: url('#SVGID_6_');">
					<path class="st5" d="M615.1,695.7l-25.3,54.4l19.4,9.3c0,0,19.1-11.8,26.3-50.9L615.1,695.7z" style="fill: rgb(255, 255, 255);"/>
					<path class="st5" d="M711.7,786.2l2.4,2.4c0,0,0.1,0.1,0.1,0.1l13.7,13.7c2.6,3,7.2,3.2,10.3,0.4c3.1-2.7,3.5-7.3,0.9-10.3&#10;&#9;&#9;&#9;&#9;&#9;&#9;l-10.6-10.6c0,0,0,0,0,0l-17.7-17.7c-1-1.2-0.9-3,0.4-4.1c0.6-0.5,1.3-0.8,2-0.8c0.6,0,1.2,0.2,1.7,0.6&#10;&#9;&#9;&#9;&#9;&#9;&#9;c0.1,0.1,0.3,0.2,0.4,0.4l19.2,19.1c0,0,0.1,0.1,0.1,0.1l0.7,0.7l11.2,11.2c2.6,3,7.2,3.2,10.3,0.4c3.1-2.7,3.5-7.3,0.9-10.3&#10;&#9;&#9;&#9;&#9;&#9;&#9;l-4.9-4.9l0,0c-0.8-0.8-51.5-54.7-60.5-62.4c-9.1-7.8-13.1-4.1-23.1,0.3c-10,4.4-15.6,7.8-28.1,0.3c0,0-1.6,30.6-20,44.3&#10;&#9;&#9;&#9;&#9;&#9;&#9;c0,0,46.9,49.6,75.6,54.4c16.9,2.8-6.3-17.5-6.3-17.5l1.6-3.2l19,19c2.5,2.8,6.9,3,9.8,0.4c3-2.6,3.3-7,0.9-9.8l-10.9-10.8&#10;&#9;&#9;&#9;&#9;&#9;&#9;c-0.1-0.1-0.2-0.2-0.3-0.3l-4-4l-11-11c0,0-0.1-0.1-0.1-0.1c-0.7-0.9-0.5-2.3,0.4-3.1c0.5-0.4,1-0.6,1.6-0.6&#10;&#9;&#9;&#9;&#9;&#9;&#9;c0.5,0,0.9,0.1,1.3,0.4" style="fill: rgb(255, 255, 255);"/>
				</g>
				<g class="st13" style="clip-path: url('#SVGID_6_');">
					<path class="st14" d="M760.1,711.6c0,0,17.5,41.2,30,49.3l19.1-11.5l-29.4-51.9L760.1,711.6z" style="fill: rgb(127, 204, 240);"/>
					<path class="st14" d="M651.3,779.2c2.3,2.8,1.9,6.8-0.8,9l-3.8,3.1c-2.7,2.2-6.7,1.6-9-1.2l0,0c-2.3-2.8-1.9-6.8,0.8-9l3.8-3.1&#10;&#9;&#9;&#9;&#9;&#9;&#9;C645,775.8,649,776.4,651.3,779.2L651.3,779.2z" style="fill: rgb(127, 204, 240);"/>
					<path class="st14" d="M678,779.4c2.6,3.2,2.2,7.8-0.9,10.3l-12.5,11.6c-3.1,2.5-7.6,1.9-10.2-1.3l0,0&#10;&#9;&#9;&#9;&#9;&#9;&#9;c-2.6-3.2-2.2-7.8,0.9-10.3l12.5-11.6C670.9,775.6,675.5,776.2,678,779.4L678,779.4z" style="fill: rgb(127, 204, 240);"/>
					<path class="st14" d="M695.4,788.4c2.6,3.2,2.2,7.8-0.9,10.3l-14.7,13.8c-3.1,2.5-7.6,1.9-10.2-1.3l0,0&#10;&#9;&#9;&#9;&#9;&#9;&#9;c-2.6-3.2-2.2-7.8,0.9-10.3l14.7-13.8C688.2,784.6,692.8,785.2,695.4,788.4L695.4,788.4z" style="fill: rgb(127, 204, 240);"/>
					<path class="st14" d="M707.4,804.3c2.6,3.2,2.2,7.8-0.9,10.3l-7.9,7c-3.1,2.5-7.6,1.9-10.2-1.3l0,0c-2.6-3.2-2.2-7.8,0.9-10.3&#10;&#9;&#9;&#9;&#9;&#9;&#9;l7.9-7C700.3,800.5,704.9,801.1,707.4,804.3L707.4,804.3z" style="fill: rgb(127, 204, 240);"/>
					<path class="st14" d="M753.6,716.6c0,0-7.8,6.3-15,1.3c-7.2-5-19.7-16.6-39.4-6.3c-19.7,10.3-29.4,15.9-35.6,20.3&#10;&#9;&#9;&#9;&#9;&#9;&#9;c-6.2,4.4-9.4,8.5-5.9,13.5c3.4,5,9.1,1.5,13.8-0.3c6.3-2.5,26.9-12.2,30-13.8c3.1-1.6,4.4,0.9,6.6,3.1&#10;&#9;&#9;&#9;&#9;&#9;&#9;c2.2,2.2,52.2,48.8,52.2,48.8s15-9.5,18.8-19.7C778.9,763.5,753.6,728.8,753.6,716.6z" style="fill: rgb(127, 204, 240);"/>
				</g>
			</g>
		</g>
	</g>
</g>

</svg>